<?xml version="1.0" standalone="no"?>
<!DOCTYPE svg PUBLIC "-//W3C//DTD SVG 20010904//EN"
 "http://www.w3.org/TR/2001/REC-SVG-20010904/DTD/svg10.dtd">
<svg version="1.0" xmlns="http://www.w3.org/2000/svg"
 width="600.000000pt" height="600.000000pt" viewBox="0 0 600.000000 600.000000"
 preserveAspectRatio="xMidYMid meet">
<metadata>
Created by potrace 1.14, written by Peter Selinger 2001-2017
</metadata>
<g transform="translate(0.000000,600.000000) scale(0.100000,-0.100000)"
fill="#000000" stroke="none">
<path d="M3599 4579 c-24 -18 -24 -18 -4 -33 43 -31 -31 -45 -101 -18 -68 25
-133 18 -168 -20 -13 -14 -21 -17 -29 -9 -6 6 -19 11 -29 11 -10 0 -18 4 -18
10 0 5 -18 14 -40 20 -22 6 -40 15 -40 20 0 6 -3 9 -7 8 -5 -1 -18 2 -31 6
-26 9 -54 -8 -46 -28 3 -7 18 -20 35 -30 38 -23 31 -30 -31 -32 -33 -1 -50 3
-54 12 -3 8 -14 14 -25 14 -11 0 -22 4 -26 9 -8 14 -104 44 -150 48 -42 2
-232 3 -352 0 -40 -1 -73 -6 -73 -10 0 -5 -8 -7 -17 -6 -10 1 -20 0 -23 -1 -3
-1 -18 -4 -35 -5 -34 -4 -160 -34 -190 -45 -70 -27 -121 -44 -127 -42 -5 1 -8
-3 -8 -10 0 -6 -3 -9 -6 -6 -6 7 -136 -60 -164 -85 -10 -8 -20 -14 -22 -12 -2
2 -35 -21 -73 -51 -94 -75 -225 -211 -225 -234 0 -6 -4 -10 -9 -10 -17 0 -207
-327 -216 -370 0 -3 -20 -45 -44 -94 -24 -49 -44 -94 -45 -100 -1 -6 -12 -26
-24 -44 -13 -18 -20 -32 -15 -32 4 0 3 -4 -2 -8 -6 -4 -16 -19 -24 -35 -8 -15
-27 -42 -43 -59 -15 -17 -28 -35 -28 -40 0 -4 -7 -8 -15 -8 -8 0 -15 -3 -15
-7 0 -5 -35 -26 -78 -48 -42 -22 -79 -42 -82 -45 -3 -3 -41 -22 -85 -43 -44
-21 -87 -43 -95 -48 -8 -5 -26 -14 -40 -20 -48 -20 -265 -124 -270 -129 -3 -3
-21 -14 -42 -25 -70 -39 -212 -170 -224 -207 -3 -10 -10 -18 -15 -18 -6 0 -8
-4 -5 -8 3 -5 -3 -18 -14 -29 -10 -12 -16 -24 -13 -27 4 -3 1 -6 -5 -6 -7 0
-11 -3 -10 -7 1 -5 -4 -26 -10 -47 -6 -22 -9 -42 -7 -45 3 -2 0 -10 -6 -17 -7
-9 -5 -14 11 -19 16 -5 31 4 70 44 27 28 54 51 60 51 5 0 10 4 10 9 0 5 23 24
51 42 28 18 57 39 65 47 8 7 20 15 27 16 6 1 28 12 47 24 19 12 40 22 46 22 5
0 16 6 23 13 6 6 15 12 19 12 4 1 17 6 28 13 12 6 24 8 28 5 3 -3 6 -1 6 6 0
6 6 11 13 9 6 -1 27 6 44 15 18 10 36 18 40 18 5 1 13 3 18 4 34 10 185 58
210 66 28 10 41 13 82 23 75 18 150 39 158 44 19 12 45 12 46 -1 2 -43 33
-143 51 -164 6 -7 7 -13 3 -13 -4 0 -2 -7 5 -15 7 -8 9 -15 5 -15 -4 0 0 -11
9 -25 9 -14 14 -25 11 -25 -4 0 1 -12 9 -27 12 -24 28 -63 27 -70 0 -2 23 -47
52 -100 l52 -98 0 -127 c0 -114 2 -129 20 -142 18 -13 21 -9 53 55 31 62 52
86 52 59 0 -5 9 -10 19 -10 11 0 21 -3 23 -8 7 -16 83 -72 99 -72 9 0 28 11
43 25 19 17 35 24 56 21 17 -2 32 0 35 3 2 4 18 6 36 5 l31 -2 -6 41 c-4 23
-13 53 -21 67 -33 60 -58 116 -56 128 1 6 -2 12 -6 12 -12 0 -8 68 7 130 8 30
13 58 12 63 -1 4 2 7 8 7 6 0 9 3 8 8 -2 4 1 9 6 12 5 3 18 -11 29 -30 10 -19
23 -36 28 -38 5 -2 9 -8 9 -14 0 -13 116 -128 155 -153 17 -11 50 -30 75 -44
25 -13 47 -27 50 -30 3 -3 10 -7 15 -8 6 -1 34 -11 63 -22 28 -10 52 -17 52
-15 0 3 9 0 21 -6 11 -6 30 -14 42 -16 12 -3 27 -6 32 -8 25 -7 224 -53 270
-62 25 -5 69 -12 115 -19 159 -22 227 -89 246 -243 7 -57 84 -217 105 -218 44
-1 98 -40 99 -71 0 -7 5 -13 10 -13 6 0 10 -9 10 -20 0 -11 5 -20 10 -20 6 0
10 -9 10 -19 0 -22 23 -33 47 -23 17 7 20 12 29 56 6 30 25 47 47 40 11 -3 25
-7 31 -8 6 -1 16 -4 21 -7 20 -11 93 -10 100 1 9 14 -15 91 -25 85 -4 -3 -15
6 -24 20 -9 14 -14 25 -11 25 4 0 0 7 -9 15 -8 9 -13 22 -10 30 4 8 1 15 -6
15 -7 0 -10 7 -6 15 3 8 2 15 -2 15 -4 0 -9 12 -10 28 -1 15 -4 36 -6 47 -4
21 27 82 52 103 9 6 13 12 9 12 -7 0 42 54 139 155 49 51 63 61 76 51 8 -6 14
-20 12 -31 -2 -11 -6 -58 -9 -105 -3 -47 -8 -104 -11 -127 -5 -39 -4 -41 18
-38 13 2 33 7 46 10 18 6 22 3 22 -14 0 -11 4 -21 8 -21 4 0 14 -17 21 -37 20
-57 39 -83 56 -77 10 4 15 19 14 43 -2 55 0 61 19 61 10 0 23 5 28 10 7 7 20
1 42 -20 44 -42 79 -23 68 37 -4 20 9 28 24 13 15 -15 169 -88 174 -83 3 4 6
1 6 -6 0 -7 4 -10 9 -7 5 4 11 3 13 -1 2 -7 113 -65 128 -68 3 0 37 -16 75
-34 39 -18 75 -34 80 -35 6 -1 21 -9 35 -19 13 -9 30 -17 37 -17 7 0 28 -9 48
-20 20 -11 42 -20 50 -20 8 0 15 -4 15 -10 0 -5 11 -10 25 -10 14 0 25 -4 25
-9 0 -16 83 -35 153 -35 43 0 52 4 78 35 16 19 29 41 30 49 0 8 3 24 5 35 3
11 6 158 7 327 1 168 4 306 7 304 3 -1 16 -7 30 -13 27 -12 62 -26 70 -27 3
-1 19 -6 35 -13 77 -29 72 -28 125 -37 19 -3 49 -9 65 -12 17 -3 68 -7 115 -8
47 -1 90 -5 96 -9 6 -3 14 -3 18 0 4 4 14 8 22 9 9 2 26 14 37 28 17 22 21 41
21 111 1 47 -1 85 -4 85 -3 0 -6 15 -7 33 -5 58 -10 92 -17 109 -4 9 -8 22
-10 30 -1 7 -5 19 -9 26 -5 6 -6 12 -2 12 3 0 -1 14 -10 30 -9 17 -12 30 -8
30 5 0 3 4 -2 8 -6 4 -19 24 -30 45 -11 21 -29 48 -40 61 -11 14 -28 34 -38
46 -41 49 -118 171 -137 217 -11 26 -24 55 -29 64 -5 9 -15 45 -21 80 -6 35
-16 75 -21 89 -5 14 -11 40 -14 58 -3 18 -12 52 -21 75 -8 23 -19 54 -24 69
-13 42 -81 172 -94 180 -6 4 -7 8 -3 8 8 0 -3 15 -40 56 -13 14 -23 28 -23 31
0 8 -97 101 -139 133 -18 14 -38 30 -45 35 -6 6 -25 18 -41 27 -23 13 -29 23
-28 45 4 48 6 53 16 53 6 0 8 3 5 6 -4 3 -2 20 4 37 5 18 11 39 13 47 2 8 4
17 5 20 1 3 3 10 5 15 1 6 3 12 4 15 18 39 19 163 2 215 -15 46 -19 50 -48 51
-18 0 -33 -3 -33 -8 0 -5 -4 -7 -8 -4 -17 11 -99 -43 -133 -88 -42 -55 -57
-100 -66 -189 -4 -44 -10 -64 -19 -64 -8 0 -14 5 -14 10 0 5 -6 7 -14 4 -7 -3
-18 -1 -22 3 -9 9 -43 18 -75 19 -11 1 -25 22 -40 59 -34 84 -106 181 -126
169 -12 -8 -2 -71 15 -104 14 -26 0 -40 -18 -18 -7 8 -16 15 -21 15 -12 0 -49
32 -49 42 0 10 -60 68 -71 68 -4 0 -14 6 -21 13 -7 7 -32 21 -56 30 -50 20
-83 10 -77 -23 4 -19 2 -19 -32 -5 -19 8 -43 15 -52 15 -9 0 -34 16 -56 35
-46 40 -126 82 -171 88 -20 3 -39 -2 -55 -14z m518 -541 c-3 -8 -6 -5 -6 6 -1
11 2 17 5 13 3 -3 4 -12 1 -19z m233 13 c0 -5 -9 -7 -20 -4 -11 3 -20 7 -20 9
0 2 9 4 20 4 11 0 20 -4 20 -9z m57 3 c-3 -3 -12 -4 -19 -1 -8 3 -5 6 6 6 11
1 17 -2 13 -5z m-390 -20 c-3 -3 -12 -4 -19 -1 -8 3 -5 6 6 6 11 1 17 -2 13
-5z m-52 -24 c-3 -5 -12 -10 -18 -10 -7 0 -6 4 3 10 19 12 23 12 15 0z m-91
-19 c4 -5 -3 -7 -14 -4 -23 6 -26 13 -6 13 8 0 17 -4 20 -9z m-244 -65 c0 -2
-7 -7 -16 -10 -8 -3 -12 -2 -9 4 6 10 25 14 25 6z m520 -20 c0 -2 -7 -7 -16
-10 -8 -3 -12 -2 -9 4 6 10 25 14 25 6z m1072 -621 c3 -13 1 -22 -3 -19 -9 5
-13 44 -5 44 2 0 6 -11 8 -25z m21 -98 c-9 -14 -22 23 -15 42 4 10 8 8 14 -8
4 -13 5 -28 1 -34z m-736 11 c-3 -7 -5 -2 -5 12 0 14 2 19 5 13 2 -7 2 -19 0
-25z m-193 -64 c3 -8 2 -12 -4 -9 -6 3 -10 10 -10 16 0 14 7 11 14 -7z m109
-41 c-7 -2 -19 -2 -25 0 -7 3 -2 5 12 5 14 0 19 -2 13 -5z m772 -13 c-3 -5
-12 -10 -18 -10 -7 0 -6 4 3 10 19 12 23 12 15 0z m159 -116 c3 -8 2 -12 -4
-9 -6 3 -10 10 -10 16 0 14 7 11 14 -7z m-1527 -60 c-3 -3 -12 -4 -19 -1 -8 3
-5 6 6 6 11 1 17 -2 13 -5z m1593 -44 c6 -11 8 -20 6 -20 -3 0 -10 9 -16 20
-6 11 -8 20 -6 20 3 0 10 -9 16 -20z m-1375 -40 c3 -6 -1 -7 -9 -4 -18 7 -21
14 -7 14 6 0 13 -4 16 -10z m-277 -25 c-3 -3 -9 2 -12 12 -6 14 -5 15 5 6 7
-7 10 -15 7 -18z m1647 -173 c-3 -3 -11 0 -18 7 -9 10 -8 11 6 5 10 -3 15 -9
12 -12z m-740 -42 c-3 -5 -12 -10 -18 -10 -7 0 -6 4 3 10 19 12 23 12 15 0z
m270 -108 c-3 -3 -11 0 -18 7 -9 10 -8 11 6 5 10 -3 15 -9 12 -12z m75 -28 c0
-2 -9 0 -20 6 -11 6 -20 13 -20 16 0 2 9 0 20 -6 11 -6 20 -13 20 -16z m-1415
-12 c-3 -3 -11 0 -18 7 -9 10 -8 11 6 5 10 -3 15 -9 12 -12z m299 2 c3 -8 2
-12 -4 -9 -6 3 -10 10 -10 16 0 14 7 11 14 -7z m-183 -91 c13 -16 12 -17 -3
-4 -17 13 -22 21 -14 21 2 0 10 -8 17 -17z m1722 -10 c-7 -2 -19 -2 -25 0 -7
3 -2 5 12 5 14 0 19 -2 13 -5z m-1473 -13 c0 -5 -2 -10 -4 -10 -3 0 -8 5 -11
10 -3 6 -1 10 4 10 6 0 11 -4 11 -10z m-192 -55 c-3 -3 -9 2 -12 12 -6 14 -5
15 5 6 7 -7 10 -15 7 -18z m263 -52 c13 -16 12 -17 -3 -4 -17 13 -22 21 -14
21 2 0 10 -8 17 -17z m-156 -43 c10 -11 16 -20 13 -20 -3 0 -13 9 -23 20 -10
11 -16 20 -13 20 3 0 13 -9 23 -20z m96 -77 c13 -17 13 -17 -6 -3 -11 8 -22
16 -24 17 -2 2 0 3 6 3 6 0 17 -8 24 -17z m187 -58 c-3 -3 -9 2 -12 12 -6 14
-5 15 5 6 7 -7 10 -15 7 -18z m57 -55 c3 -5 1 -10 -4 -10 -6 0 -11 5 -11 10 0
6 2 10 4 10 3 0 8 -4 11 -10z"/>
</g>
</svg>
